<svg xmlns="http://www.w3.org/2000/svg" viewBox="0 0 106 43"><defs><style>.cls-1{fill:#fff;}.cls-2{fill:#010100;}.cls-3{fill:none;stroke:#fff;stroke-miterlimit:10;stroke-width:0.5px;}</style></defs><title>アートボード 3</title><g id="レイヤー_2" data-name="レイヤー 2"><path class="cls-1" d="M18,3.63a.61.61,0,0,1,.44-.2c1.17,0,1.73,0,1.73,0a4,4,0,0,1,1.6.9c1-.06,1.1,1,1.1,1a1.07,1.07,0,0,1-.55,1.24,7.24,7.24,0,0,1-.68,1.67c.08,1.22-.39.76-.39.76a2.5,2.5,0,0,1-.69.67,1.06,1.06,0,0,1,0,.41,1.83,1.83,0,0,1-1,0A.83.83,0,0,0,19,10c-.34,0,0,.72,0,.72a27.09,27.09,0,0,1,.6,3.3l3.83-.91a1.17,1.17,0,0,1,.74.08l.68.5c.09.1,0,.39,0,.39a.64.64,0,0,1,.38-.16l.67.57a.12.12,0,0,1,0,.2,25.48,25.48,0,0,0-4.44,1.06c-.15,0-.3-.17-.3-.17l-1.14.12a.49.49,0,0,0-.31.17h-.24a6.26,6.26,0,0,1-1.15,2.42l-.08.11c.47-.05.47.34.47.34a4.92,4.92,0,0,1,0,1.39,14.08,14.08,0,0,1,1.1,3.92c.08.36-.37.57-.37.57a32.4,32.4,0,0,1,.47,4.17,5.22,5.22,0,0,1-.36,1.44c0,2.77-.19,5.48-.19,5.48.1.58,1.7,1.06,1.7,1.06l1.25.2c.47,0,.21,1,.21,1a24,24,0,0,1-5.21-.32,1.16,1.16,0,0,1,.15-1.46,16.17,16.17,0,0,0-.47-3.6,18.93,18.93,0,0,1,.1-3.48l-.71-1.27a3.72,3.72,0,0,0-.38,1.46c-1.16,1.19-3.46,5.86-3.46,5.86-.23.25.1,1.15.1,1.15a13.47,13.47,0,0,0,1.65,1.39c.22.25-.09.58-.09.58A7.62,7.62,0,0,1,11.56,38a7.45,7.45,0,0,1-1.65-1.67c-.36-.65.71-1.55.71-1.55a23.55,23.55,0,0,0,1-3.93,3.72,3.72,0,0,1,1-2c.28-.39.19-3.83.19-3.83L12.66,25a23,23,0,0,1-.21-2.77A11.37,11.37,0,0,1,12.14,20c0-.29-.59-.2-.59-.2a4.32,4.32,0,0,1,.37-2.22L12,16.24c-.2-.63-1.5-.39-1.5-.39-.45-.06-1.35-1-1.35-1-.82-1.76,1.06-5.83,1.06-5.83.22-.35,1.25-.46,1.25-.46a5.08,5.08,0,0,1,1.84.52c.14.21.49-1.23.49-1.23,0-.22.65-.52,1.06-.7a.66.66,0,0,1,.82.24,5.31,5.31,0,0,1,.44.93A1.15,1.15,0,0,1,17,7.8c.2-3.28,1.13-3.42,1.13-3.42C17.47,4.28,17.74,3.87,18,3.63Z"/><path class="cls-2" d="M19.78,14.06l1.54,1.76c.17.22.29.2.29.2a24.26,24.26,0,0,1,4.44-1.2c.14,0,0-.2,0-.2l-.7-.67h0c-.07-.13-.44.31-.44.31a.73.73,0,0,0,.09-.57l-.68-.56a.66.66,0,0,0-.6-.12Z"/><path class="cls-2" d="M18.39,3.75a.6.6,0,0,1,.44-.19c1.17,0,1.73,0,1.73,0a4,4,0,0,1,1.6.9c1-.07,1.1,1,1.1,1a1.07,1.07,0,0,1-.55,1.23A7.19,7.19,0,0,1,22,8.37c.08,1.22-.39.75-.39.75A2.67,2.67,0,0,1,21,9.8a1.12,1.12,0,0,1,0,.4,1.9,1.9,0,0,1-1,0,.83.83,0,0,0-.52-.07c-.34,0,0,.72,0,.72a27,27,0,0,1,.6,3.29l3.83-.91a1.22,1.22,0,0,1,.74.09l.68.5c.09.1,0,.39,0,.39a.66.66,0,0,1,.38-.16l.67.56c.13.12,0,.2,0,.2a25.54,25.54,0,0,0-4.44,1.07c-.15,0-.29-.18-.29-.18l-1.15.12A.48.48,0,0,0,20,16h-.24a6.12,6.12,0,0,1-1.15,2.41l-.08.11c.47-.05.47.34.47.34a5,5,0,0,1,0,1.4,14.08,14.08,0,0,1,1.1,3.92c.08.36-.37.56-.37.56a32.6,32.6,0,0,1,.47,4.18,5.22,5.22,0,0,1-.36,1.44c0,2.77-.18,5.47-.18,5.47.09.58,1.68,1,1.68,1,.39.06,1.26.26,1.26.26.47,0,.21,1,.21,1a23.74,23.74,0,0,1-5.21-.33,1.15,1.15,0,0,1,.15-1.45,16.17,16.17,0,0,0-.47-3.6,19.05,19.05,0,0,1,.1-3.49L16.66,28a3.68,3.68,0,0,0-.38,1.45c-1.16,1.19-3.46,5.86-3.46,5.86-.23.25.1,1.16.1,1.16a14.45,14.45,0,0,0,1.65,1.39c.22.25-.09.58-.09.58A8,8,0,0,1,12,38.17a7.45,7.45,0,0,1-1.65-1.67c-.36-.66.72-1.55.72-1.55a24.31,24.31,0,0,0,1-3.93,3.8,3.8,0,0,1,1-2c.28-.39.19-3.83.19-3.83l-.22-.1a23,23,0,0,1-.21-2.77,11.23,11.23,0,0,1-.31-2.2c0-.3-.59-.2-.59-.2a4.45,4.45,0,0,1,.37-2.22l.05-1.32c-.22-.82-1.74-.63-1.74-.63A2.88,2.88,0,0,1,9.55,15c-.82-1.77,1.06-5.84,1.06-5.84.22-.34,1.25-.46,1.25-.46a5,5,0,0,1,1.84.53c.14.2.49-1.24.49-1.24,0-.21.65-.52,1.06-.69a.66.66,0,0,1,.82.24,5,5,0,0,1,.44.93,1.15,1.15,0,0,1,.87-.55c.2-3.29,1.13-3.43,1.13-3.43C17.9,4.41,18.17,4,18.39,3.75Z"/><path class="cls-3" d="M19.16,6.66A4.26,4.26,0,0,0,18.28,10a2.78,2.78,0,0,0,1.46,1.68,3.45,3.45,0,0,1,1.07.62c.53.41.6,1.88.6,1.88"/><path class="cls-3" d="M20.81,12.28a.88.88,0,0,1,.22-.84,3.3,3.3,0,0,0,.4-2.08"/><circle class="cls-1" cx="19.17" cy="6.66" r="0.24"/><path class="cls-2" d="M19.92,13.93l1.54,1.76c.17.22.29.2.29.2a24.26,24.26,0,0,1,4.44-1.2c.14,0,0-.2,0-.2l-.7-.66h0c-.07-.14-.44.3-.44.3a.73.73,0,0,0,.09-.57L24.49,13a.66.66,0,0,0-.6-.12Z"/><path class="cls-1" d="M28.4,30.09a1,1,0,1,1,0-2.07l7.64.07V23H30.32a1,1,0,0,1-1.1-1,1,1,0,0,1,1.1-1H36V18.85h-2.6a1,1,0,0,1-1.1-1,1,1,0,0,1,.22-.62c-3.51,3.16-4.4,3.28-4.73,3.28a1.26,1.26,0,0,1-1.28-1.22,1.19,1.19,0,0,1,.75-1.08,26.13,26.13,0,0,0,7.63-6.77,2.73,2.73,0,0,1,2.14-1.13,3.11,3.11,0,0,1,2.28,1.13,28.77,28.77,0,0,0,7.85,6,1.09,1.09,0,0,1,.64,1,1.42,1.42,0,0,1-1.39,1.37c-1.29,0-5.85-3.87-8.49-6.82a1,1,0,0,0-.72-.41.9.9,0,0,0-.68.41,33.68,33.68,0,0,1-3.76,4,1.06,1.06,0,0,1,.64-.19h7.73a1,1,0,0,1,1.08,1,1,1,0,0,1-1.08,1H38.34v2.07h5.83a1,1,0,0,1,1.08,1,1,1,0,0,1-1.08,1H38.34v5.11h.84a14.57,14.57,0,0,0,1.54-3.55,1,1,0,0,1,1-.77,1.29,1.29,0,0,1,1.34,1.13c0,.65-1.29,2.64-1.65,3.17L46.12,28a1,1,0,0,1,0,2.07Zm4.9-2.33a.84.84,0,0,1-.79-.53,6.92,6.92,0,0,0-1.4-1.94.68.68,0,0,1-.19-.46c0-.51.63-.94,1.2-.94,1,0,2.38,2.12,2.38,2.74A1.23,1.23,0,0,1,33.3,27.76Z"/><path class="cls-1" d="M52,27.66a1.29,1.29,0,0,1-1.3-1.29,1.12,1.12,0,0,1,.72-1,22.39,22.39,0,0,0,5.88-3.69,1,1,0,0,1,.7-.27,1.19,1.19,0,0,1,1.15,1.16,1.22,1.22,0,0,1-.43.91C56.43,25.55,52.86,27.66,52,27.66Zm3.14-10.37a11.17,11.17,0,0,0-3-2.69.91.91,0,0,1-.45-.74,1.26,1.26,0,0,1,1.27-1.13c.86,0,4.32,2.4,4.32,3.7A1.4,1.4,0,0,1,56,17.77,1,1,0,0,1,55.09,17.29Zm10,3c.43,3.17,3.29,6.67,6.31,8.3a1.18,1.18,0,0,1,.68,1,1.34,1.34,0,0,1-1.35,1.27c-1.53,0-5.06-3.51-6.55-6.92a11.69,11.69,0,0,1-8.76,7.23,1.23,1.23,0,0,1-1.3-1.13,1.16,1.16,0,0,1,1-1.08,9.42,9.42,0,0,0,7.61-9.22c0-.57,0-1.29-.07-1.89v-.05c0-.7.63-1,1.25-1a1.12,1.12,0,0,1,1.25,1.08,18.51,18.51,0,0,1-.07,2.21l0,.12Zm-5.45-.82a1.35,1.35,0,0,1-1.1.63,1.08,1.08,0,0,1-1.11-1,1.16,1.16,0,0,1,.29-.76,15.94,15.94,0,0,0,3.24-7.2,1.19,1.19,0,0,1,2.36.09,13.23,13.23,0,0,1-.65,2.47c1.25,0,2.73,0,4.1,0,.87,0,1.66,0,2.35,0,1.4.05,2.24.79,2.24,1.87s-1.71,4-1.85,4.23a1.41,1.41,0,0,1-1.23.69,1.08,1.08,0,0,1-1.17-1,.93.93,0,0,1,.19-.57A11.76,11.76,0,0,0,68.75,16c0-.22-.12-.36-.48-.36-.87,0-2.79,0-4.49,0H61.86A18.5,18.5,0,0,1,59.6,19.45Z"/><path class="cls-1" d="M82.5,26a65,65,0,0,1-7.13,3,1.17,1.17,0,0,1-1.06-1.2.89.89,0,0,1,.65-.91L76,26.56v-2c0-3.46,0-9.1,0-10.09,0-1.94,1.73-2.08,3.1-2.08l0-1.52v0c0-.6.58-.91,1.15-.91s1.16.31,1.16.91v0l0,1.54c1.52,0,3,.17,3.07,2,0,1,.08,2.18.08,3.28,0,.63,0,1.25,0,1.78a2.16,2.16,0,0,1-2.11,2.11c-.46.05-1.4.07-2.28.07s-1.51,0-1.92,0c0,.33,0,2.54,0,4.1,1.32-.5,2.64-1,3.41-1.32-.69-1.06-.81-1.27-.81-1.56a.94.94,0,0,1,1-.84,1.06,1.06,0,0,1,.8.34c.4.43,2,2.42,2,3.33a1.15,1.15,0,0,1-1.11,1.16,1.12,1.12,0,0,1-1-.72ZM78.23,17.8c0,.84,0,1.65,0,2,.29,0,1.06,0,1.8,0s1.51,0,1.73,0c.69-.1.69-.56.69-2ZM82.47,16c0-.4,0-.79,0-1.12,0-.65,0-.75-2.09-.75-1.82,0-2.09.05-2.11.79V16ZM92.63,23.2H88.21A11.06,11.06,0,0,1,83.41,31a1.41,1.41,0,0,1-.77.24A1.22,1.22,0,0,1,81.42,30a1.07,1.07,0,0,1,.55-.89c3.94-2.38,4.39-6.53,4.39-9.31,0-.75,0-1.4,0-1.88,0-1.7,0-3.09,0-4.8,0-2.42,1.87-2.42,4.51-2.42,2.45,0,4,.29,4.06,2.42v2.6c0,7.41,0,8.18,0,8.49l0,3.39v.05c0,1.41-.91,3.19-4,3.19-1.83,0-2.5-.34-2.5-1.3a1,1,0,0,1,.94-1.1.75.75,0,0,1,.21,0,7.79,7.79,0,0,0,1.44.17c.92,0,1.59-.31,1.59-1.39Zm0-5.26H88.48v.14c0,2.09,0,2.55,0,3.08h4.22Zm0-2c0-.86,0-1.68,0-2.4s-.43-.82-1.78-.82c-1.89,0-2.3,0-2.3.82s0,1.56,0,2.4Z"/></g></svg>